<?xml version="1.0" standalone="no"?>
<!DOCTYPE svg PUBLIC "-//W3C//DTD SVG 20010904//EN"
 "http://www.w3.org/TR/2001/REC-SVG-20010904/DTD/svg10.dtd">
<svg version="1.0" xmlns="http://www.w3.org/2000/svg"
 width="225.000000pt" height="225.000000pt" viewBox="0 0 225.000000 225.000000"
 preserveAspectRatio="xMidYMid meet">

<g transform="translate(0.000000,225.000000) scale(0.100000,-0.100000)"
fill="#000000" stroke="none">
<path d="M1055 1954 c-68 -9 -153 -27 -195 -41 -91 -31 -251 -121 -295 -167
-26 -27 -77 -70 -72 -60 9 16 -19 39 -28 24 -4 -6 -1 -9 5 -8 28 7 15 -39 -31
-106 -164 -243 -189 -560 -64 -825 111 -233 317 -399 570 -457 103 -24 268
-22 379 5 117 28 288 114 349 175 8 8 17 12 21 9 3 -4 6 -1 6 6 0 6 11 23 25
37 46 45 105 133 144 212 110 220 114 488 10 710 -112 241 -319 411 -569 466
-71 16 -207 26 -255 20z m609 -419 c15 -11 16 -15 5 -16 -8 0 -4 -4 9 -9 l23
-10 -3 -380 -3 -381 -25 -19 c-24 -19 -48 -20 -542 -20 -284 0 -523 3 -532 6
-9 3 -16 10 -16 15 0 6 10 4 23 -2 20 -11 21 -11 8 5 -8 9 -21 14 -31 11 -12
-4 -19 1 -24 17 -3 13 -6 182 -6 376 0 373 3 404 47 415 10 3 250 5 533 6 438
0 518 -2 534 -14z"/>
<path d="M572 1496 c-3 -5 0 -6 6 -2 9 5 12 -91 14 -371 l3 -378 32 -1 c18 -1
30 3 27 7 -5 9 145 263 228 387 34 50 54 72 64 68 9 -3 12 -1 9 4 -10 16 22
11 39 -6 9 -8 57 -82 108 -164 51 -82 94 -148 95 -146 2 1 25 38 51 82 60 99
77 104 126 37 19 -26 63 -95 98 -153 34 -58 67 -108 73 -113 5 -4 33 -6 60 -5
44 3 50 6 53 26 2 16 8 22 18 18 12 -5 14 44 12 332 l-3 337 -2 -327 c-2 -204
-7 -328 -13 -328 -6 0 -11 132 -12 351 l-3 351 -538 2 c-312 0 -541 -3 -545
-8z m892 -77 c30 -14 57 -76 52 -118 -9 -81 -87 -123 -161 -89 -36 16 -69 82
-59 117 4 14 8 33 10 41 2 8 15 25 29 38 29 25 87 30 129 11z"/>
<path d="M1366 1369 c-40 -32 -34 -89 13 -113 71 -36 128 58 67 111 -33 28
-46 29 -80 2z"/>
<path d="M1676 1487 c3 -10 9 -15 12 -12 3 3 0 11 -7 18 -10 9 -11 8 -5 -6z"/>
<path d="M561 1464 c0 -11 3 -14 6 -6 3 7 2 16 -1 19 -3 4 -6 -2 -5 -13z"/>
<path d="M883 1053 c-38 -65 -95 -157 -127 -205 -31 -49 -57 -90 -59 -93 -3
-6 522 -13 528 -6 3 2 -1 11 -8 20 -18 21 -209 326 -231 369 -9 17 -20 32 -24
32 -5 0 -40 -53 -79 -117z"/>
<path d="M1271 923 l-50 -77 27 -48 26 -47 103 -3 c57 -2 103 0 103 4 0 4 -19
38 -43 75 -24 38 -55 89 -70 115 -15 26 -31 50 -37 53 -5 3 -31 -29 -59 -72z"/>
<path d="M1726 508 c3 -5 10 -6 15 -3 13 9 11 12 -6 12 -8 0 -12 -4 -9 -9z"/>
<path d="M1686 468 c3 -5 10 -6 15 -3 13 9 11 12 -6 12 -8 0 -12 -4 -9 -9z"/>
</g>
</svg>
